<?xml version="1.0" standalone="no"?>
<!DOCTYPE svg PUBLIC "-//W3C//DTD SVG 20010904//EN"
 "http://www.w3.org/TR/2001/REC-SVG-20010904/DTD/svg10.dtd">
<svg version="1.0" xmlns="http://www.w3.org/2000/svg"
 width="28.000000pt" height="22.000000pt" viewBox="0 0 1259.000000 1280.000000"
 preserveAspectRatio="xMidYMid meet">
<metadata>
Created by potrace 1.15, written by Peter Selinger 2001-2017
</metadata>
<g transform="translate(0.000000,1280.000000) scale(0.100000,-0.100000)"
fill="#B9B9B9" stroke="none">
<path d="M6065 12789 c-301 -31 -655 -153 -910 -314 -335 -211 -602 -507 -775
-860 -353 -721 -273 -1559 210 -2211 131 -176 321 -355 515 -485 106 -71 336
-187 460 -231 452 -161 923 -166 1384 -12 764 255 1307 909 1426 1719 22 146
22 424 0 570 -69 468 -273 882 -595 1206 -176 178 -341 295 -575 410 -353 173
-761 247 -1140 208z"/>
<path d="M4280 8375 c-150 -18 -250 -64 -331 -151 -75 -81 -3835 -4571 -3866
-4617 -46 -68 -73 -163 -73 -256 0 -145 50 -268 148 -363 74 -72 477 -407 522
-435 167 -102 427 -80 575 50 22 19 585 686 1250 1480 666 795 1213 1446 1217
1446 4 1 9 -1112 10 -2471 l3 -2473 28 -80 c91 -259 293 -437 554 -490 69 -14
290 -15 1998 -13 l1920 3 70 24 c261 87 417 250 504 526 14 45 16 307 21 2534
l5 2484 1237 -1476 c681 -811 1255 -1488 1275 -1505 154 -121 401 -138 563
-39 45 28 448 363 522 435 98 95 148 218 148 363 0 93 -27 188 -73 256 -31 46
-3791 4536 -3866 4617 -90 96 -196 139 -384 155 -197 17 -3838 13 -3977 -4z"/>
</g>
</svg>
