<svg width="30" height="23" viewBox="0 0 30 23" fill="none" xmlns="http://www.w3.org/2000/svg">
<path d="M6.63297 22.3668C5.01075 22.3647 3.45105 21.7409 2.27481 20.6237C1.09857 19.5065 0.39527 17.981 0.30963 16.361C0.22399 14.7411 0.762525 13.1499 1.81442 11.915C2.86631 10.68 4.35154 9.89519 5.9645 9.72203C5.48956 7.85952 5.77396 5.88464 6.75512 4.23182C7.73628 2.579 9.33383 1.38364 11.1963 0.908704C13.0588 0.433769 15.0337 0.718162 16.6865 1.69932C18.3394 2.68048 19.5347 4.27804 20.0097 6.14054C21.1173 5.98631 22.2449 6.06164 23.3222 6.36185C24.3996 6.66206 25.4036 7.18073 26.2719 7.8856C27.1401 8.59046 27.8541 9.46645 28.3693 10.4591C28.8846 11.4517 29.1901 12.5397 29.2668 13.6554C29.3435 14.7712 29.1899 15.8907 28.8154 16.9445C28.4409 17.9983 27.8536 18.9638 27.0899 19.7809C26.3263 20.598 25.4028 21.2493 24.3767 21.6941C23.3506 22.139 22.244 22.368 21.1256 22.3668H6.63297Z" fill="#B9B9B9"/>
</svg>
