<svg width="29" height="27" viewBox="0 0 29 27" fill="none" xmlns="http://www.w3.org/2000/svg">
<path d="M11.5399 10.6003H1.78854C1.57892 10.6003 1.37148 10.5588 1.17793 10.4783C0.984382 10.3978 0.808642 10.2798 0.660861 10.1312C0.513079 9.98249 0.395961 9.80606 0.316616 9.61203C0.237271 9.418 0.197253 9.21021 0.198515 9.00058C0.197253 8.79096 0.237271 8.58317 0.316616 8.38914C0.395961 8.19511 0.513079 8.01866 0.660861 7.86999C0.808642 7.72132 0.984382 7.60333 1.17793 7.52282C1.37148 7.44232 1.57892 7.40089 1.78854 7.40089H11.5399C12.0133 7.4009 12.4676 7.21348 12.8032 6.87962C13.1389 6.54576 13.3287 6.0926 13.3313 5.61919C13.3313 5.14411 13.1424 4.68852 12.8065 4.35259C12.4706 4.01666 12.015 3.82792 11.5399 3.82792H8.58972C8.16546 3.82792 7.75853 3.65938 7.45853 3.35938C7.15853 3.05938 6.98987 2.65251 6.98987 2.22824C6.98987 1.80398 7.15853 1.39708 7.45853 1.09708C7.75853 0.797082 8.16546 0.62854 8.58972 0.62854L11.5399 0.62854C12.8618 0.631077 14.1289 1.158 15.0628 2.09366C15.9967 3.02931 16.5212 4.29724 16.5212 5.61919C16.5186 6.93947 15.9929 8.20496 15.0593 9.13855C14.1257 10.0721 12.8602 10.5977 11.5399 10.6003V10.6003Z" fill="#B9B9B9"/>
<path d="M23.2267 15.2078H1.78879C1.57916 15.2078 1.37172 15.1664 1.17817 15.0859C0.984626 15.0054 0.808886 14.8874 0.661105 14.7387C0.513323 14.5901 0.396205 14.4136 0.31686 14.2196C0.237515 14.0256 0.197497 13.8178 0.198759 13.6082C0.197497 13.3985 0.237515 13.1907 0.31686 12.9967C0.396205 12.8027 0.513323 12.6262 0.661105 12.4776C0.808886 12.3289 0.984626 12.2109 1.17817 12.1304C1.37172 12.0499 1.57916 12.0085 1.78879 12.0085H23.2267C23.756 12.0085 24.2636 11.7989 24.6388 11.4255C25.0139 11.0521 25.226 10.5453 25.2286 10.016C25.226 9.48673 25.0139 8.97997 24.6388 8.60659C24.2636 8.23321 23.756 8.02359 23.2267 8.0236H20.487C20.0627 8.0236 19.6558 7.85506 19.3558 7.55506C19.0558 7.25506 18.8874 6.84816 18.8874 6.42389C18.8874 6.21382 18.9286 6.00581 19.009 5.81173C19.0894 5.61765 19.2073 5.44131 19.3558 5.29276C19.5044 5.14422 19.6807 5.02637 19.8747 4.94597C20.0688 4.86558 20.2769 4.82422 20.487 4.82422H23.2744C23.9562 4.82422 24.6314 4.9585 25.2613 5.21942C25.8912 5.48033 26.4635 5.86274 26.9456 6.34485C27.4277 6.82695 27.8102 7.39931 28.0711 8.02921C28.3321 8.65911 28.4664 9.33423 28.4664 10.016C28.4664 10.7019 28.3304 11.3809 28.0665 12.014C27.8026 12.647 27.4159 13.2215 26.9287 13.7042C26.4415 14.187 25.8635 14.5684 25.2281 14.8265C24.5926 15.0846 23.9125 15.2142 23.2267 15.2078V15.2078Z" fill="#B9B9B9"/>
<path d="M14.5768 26.7024H10.5249C10.1007 26.7024 9.69375 26.5339 9.39375 26.2339C9.09375 25.9339 8.92509 25.527 8.92509 25.1027C8.92509 24.8931 8.96666 24.6855 9.04717 24.492C9.12768 24.2984 9.24555 24.1227 9.39422 23.9749C9.54289 23.8271 9.71936 23.7102 9.91339 23.6309C10.1074 23.5515 10.3153 23.5113 10.5249 23.5126H14.5768C15.0655 23.5101 15.5332 23.3142 15.8778 22.9677C16.2225 22.6213 16.4159 22.1525 16.4159 21.6639C16.4159 21.1761 16.2223 20.7083 15.8773 20.3634C15.5324 20.0185 15.0646 19.8247 14.5768 19.8247H1.78879C1.36706 19.8247 0.962583 19.6572 0.664379 19.359C0.366175 19.0608 0.198759 18.6563 0.198759 18.2346C0.197497 18.025 0.237515 17.8171 0.31686 17.6231C0.396205 17.4291 0.513323 17.2527 0.661105 17.104C0.808886 16.9553 0.984626 16.8373 1.17817 16.7568C1.37172 16.6763 1.57916 16.6349 1.78879 16.6349H14.5768C15.9115 16.6349 17.1916 17.1644 18.1362 18.1073C19.0809 19.0501 19.6129 20.3292 19.6154 21.6639C19.6129 22.9994 19.0811 24.2795 18.1367 25.2239C17.1923 26.1682 15.9124 26.6999 14.5768 26.7024Z" fill="#B9B9B9"/>
</svg>
